<svg xmlns="http://www.w3.org/2000/svg" viewBox="0 0 1120 650" role="img" aria-labelledby="title desc"><title id="title">Scored queue coverage</title><desc id="desc">Each row has 237 positions; valid, other complete and remaining are distinct.</desc><rect width="1120" height="650" fill="white"/><g font-family="Arial, sans-serif" fill="#17212b"><text x="24" y="30" font-size="22">Scored queue coverage — all 12 models</text><text x="24" y="56" font-size="14">Blue: aggregate schema-valid · Orange: other complete · Grey: remaining (including not started)</text><text x="385" y="102" text-anchor="end" font-size="14">gemini-3.7-flash</text><rect x="400" y="85" width="521.0548523206751" height="25" fill="#166ca2"/><rect x="921.0548523206751" y="85" width="8.945147679324894" height="25" fill="#c16c25"/><rect x="930" y="85" width="0" height="25" fill="#cdd3d8"/><text x="945" y="102" font-size="14">233 / 4 / 0</text><text x="385" y="144" text-anchor="end" font-size="14">gpt-5.6-luna</text><rect x="400" y="127" width="509.873417721519" height="25" fill="#166ca2"/><rect x="909.873417721519" y="127" width="20.126582278481013" height="25" fill="#c16c25"/><rect x="930" y="127" width="0" height="25" fill="#cdd3d8"/><text x="945" y="144" font-size="14">228 / 9 / 0</text><text x="385" y="186" text-anchor="end" font-size="14">gpt-5.6-sol</text><rect x="400" y="169" width="530" height="25" fill="#166ca2"/><rect x="930" y="169" width="0" height="25" fill="#c16c25"/><rect x="930" y="169" width="0" height="25" fill="#cdd3d8"/><text x="945" y="186" font-size="14">237 / 0 / 0</text><text x="385" y="228" text-anchor="end" font-size="14">deepseek-v4-flash-0731</text><rect x="400" y="211" width="460.6751054852321" height="25" fill="#166ca2"/><rect x="860.675105485232" y="211" width="67.08860759493672" height="25" fill="#c16c25"/><rect x="927.7637130801688" y="211" width="2.2362869198312234" height="25" fill="#cdd3d8"/><text x="945" y="228" font-size="14">206 / 30 / 1</text><text x="385" y="270" text-anchor="end" font-size="14">minimax-m3</text><rect x="400" y="253" width="422.65822784810126" height="25" fill="#166ca2"/><rect x="822.6582278481012" y="253" width="107.34177215189874" height="25" fill="#c16c25"/><rect x="930" y="253" width="0" height="25" fill="#cdd3d8"/><text x="945" y="270" font-size="14">189 / 48 / 0</text><text x="385" y="312" text-anchor="end" font-size="14">mistral-small-2603</text><rect x="400" y="295" width="0" height="25" fill="#166ca2"/><rect x="400" y="295" width="0" height="25" fill="#c16c25"/><rect x="400" y="295" width="530" height="25" fill="#cdd3d8"/><text x="945" y="312" font-size="14">0 / 0 / 237</text><text x="385" y="354" text-anchor="end" font-size="14">mistral-small-3.2-24b-instruct</text><rect x="400" y="337" width="26.835443037974684" height="25" fill="#166ca2"/><rect x="426.8354430379747" y="337" width="13.417721518987342" height="25" fill="#c16c25"/><rect x="440.253164556962" y="337" width="489.746835443038" height="25" fill="#cdd3d8"/><text x="945" y="354" font-size="14">12 / 6 / 219</text><text x="385" y="396" text-anchor="end" font-size="14">nemotron-3-ultra-550b-a55b</text><rect x="400" y="379" width="24.599156118143462" height="25" fill="#166ca2"/><rect x="424.59915611814347" y="379" width="4.472573839662447" height="25" fill="#c16c25"/><rect x="429.0717299578059" y="379" width="500.9282700421941" height="25" fill="#cdd3d8"/><text x="945" y="396" font-size="14">11 / 2 / 224</text><text x="385" y="438" text-anchor="end" font-size="14">nemotron-3.5-lightning</text><rect x="400" y="421" width="165.48523206751057" height="25" fill="#166ca2"/><rect x="565.4852320675105" y="421" width="91.68776371308017" height="25" fill="#c16c25"/><rect x="657.1729957805907" y="421" width="272.82700421940933" height="25" fill="#cdd3d8"/><text x="945" y="438" font-size="14">74 / 41 / 122</text><text x="385" y="480" text-anchor="end" font-size="14">qwen-2.5-7b-instruct</text><rect x="400" y="463" width="279.53586497890296" height="25" fill="#166ca2"/><rect x="679.535864978903" y="463" width="248.22784810126583" height="25" fill="#c16c25"/><rect x="927.7637130801688" y="463" width="2.2362869198312234" height="25" fill="#cdd3d8"/><text x="945" y="480" font-size="14">125 / 111 / 1</text><text x="385" y="522" text-anchor="end" font-size="14">qwen3.8-27b</text><rect x="400" y="505" width="494.21940928270044" height="25" fill="#166ca2"/><rect x="894.2194092827004" y="505" width="35.780590717299575" height="25" fill="#c16c25"/><rect x="930" y="505" width="0" height="25" fill="#cdd3d8"/><text x="945" y="522" font-size="14">221 / 16 / 0</text><text x="385" y="564" text-anchor="end" font-size="14">glm-5.3-flash</text><rect x="400" y="547" width="2.2362869198312234" height="25" fill="#166ca2"/><rect x="402.23628691983123" y="547" width="0" height="25" fill="#c16c25"/><rect x="402.23628691983123" y="547" width="527.7637130801688" height="25" fill="#cdd3d8"/><text x="945" y="564" font-size="14">1 / 0 / 236</text><text x="400" y="620" font-size="14">0</text><text x="890" y="620" font-size="14">237 attempts</text></g></svg>
